<?xml version="1.0" encoding="UTF-8"?>
<svg width="232px" height="346px" viewBox="0 0 232 346" version="1.1" xmlns="http://www.w3.org/2000/svg" xmlns:xlink="http://www.w3.org/1999/xlink">
    <title>EBDAFD8E-71D0-4DA5-9460-3FF0E885FCAB</title>
    <defs>
        <path d="M32.9142857,0 L183.085714,0 C201.263772,-3.33925509e-15 216,14.7362277 216,32.9142857 L216,297.276797 C216,315.454855 201.263772,330.191083 183.085714,330.191083 L32.9142857,330.191083 C14.7362277,330.191083 2.22617006e-15,315.454855 0,297.276797 L0,32.9142857 C-2.22617006e-15,14.7362277 14.7362277,3.33925509e-15 32.9142857,0 Z" id="path-1"></path>
        <filter x="-6.2%" y="-3.2%" width="112.5%" height="108.2%" filterUnits="objectBoundingBox" id="filter-2">
            <feOffset dx="0" dy="3" in="SourceAlpha" result="shadowOffsetOuter1"></feOffset>
            <feGaussianBlur stdDeviation="4" in="shadowOffsetOuter1" result="shadowBlurOuter1"></feGaussianBlur>
            <feComposite in="shadowBlurOuter1" in2="SourceAlpha" operator="out" result="shadowBlurOuter1"></feComposite>
            <feColorMatrix values="0 0 0 0 0   0 0 0 0 0   0 0 0 0 0  0 0 0 0.1 0" type="matrix" in="shadowBlurOuter1"></feColorMatrix>
        </filter>
        <path d="M32.9142857,0 L183.085714,0 C201.263772,-3.33925509e-15 216,14.7362277 216,32.9142857 L216,297.276797 C216,315.454855 201.263772,330.191083 183.085714,330.191083 L32.9142857,330.191083 C14.7362277,330.191083 2.22617006e-15,315.454855 0,297.276797 L0,32.9142857 C-2.22617006e-15,14.7362277 14.7362277,3.33925509e-15 32.9142857,0 Z" id="path-3"></path>
    </defs>
    <g id="FINAL" stroke="none" stroke-width="1" fill="none" fill-rule="evenodd">
        <g id="Happy-Hunny-Landing-Phase1-1920" transform="translate(-87.000000, -451.000000)">
            <g id="Game" transform="translate(95.135278, 109.714286)">
                <g id="card-6" transform="translate(0.000000, 346.191083)">
                    <g id="Rectangle-Copy-15">
                        <use fill="black" fill-opacity="1" filter="url(#filter-2)" xlink:href="#path-1"></use>
                        <path stroke="#FFFFFF" stroke-width="6.85714286" d="M183.085714,3.42857143 C191.227969,3.42857143 198.599398,6.72887242 203.935263,12.0647372 C209.271128,17.400602 212.571429,24.7720305 212.571429,32.9142857 L212.571429,32.9142857 L212.571429,297.276797 C212.571429,305.419052 209.271128,312.790481 203.935263,318.126346 C198.599398,323.46221 191.227969,326.762511 183.085714,326.762511 L183.085714,326.762511 L32.9142857,326.762511 C24.7720305,326.762511 17.400602,323.46221 12.0647372,318.126346 C6.72887242,312.790481 3.42857143,305.419052 3.42857143,297.276797 L3.42857143,297.276797 L3.42857143,32.9142857 C3.42857143,24.7720305 6.72887242,17.400602 12.0647372,12.0647372 C17.400602,6.72887242 24.7720305,3.42857143 32.9142857,3.42857143 L32.9142857,3.42857143 Z" stroke-linejoin="square" fill="#FFD343" fill-rule="evenodd"></path>
                    </g>
                    <g id="card-dotted-line">
                        <mask id="mask-4" fill="white">
                            <use xlink:href="#path-3"></use>
                        </mask>
                        <g id="Mask"></g>
                        <path d="M971.99914,-324.590533 C936.555007,-291.84499 882.257658,-248.378935 846.897668,-228.494016 C796.260492,-200.017874 789.41258,-187.012474 682.295461,-159.43768 C629.776625,-145.917936 557.600308,-135.472015 527.584057,-194.666006 C513.988932,-221.476474 539.288069,-247.995586 566.652504,-232.925635 C595.0662,-217.277842 582.21048,-168.35114 555.443594,-159.43768 C539.712881,-154.199302 530.13554,-152.625043 514.338828,-152.043784 C457.35297,-149.94692 399.405704,-155.770152 343.353747,-146.551515 C164.904233,-117.202652 138.800785,6.72596837 134.695749,27.5853684 C120.359641,100.433121 134.695749,203.237861 228.282722,239.311365 C342.476604,283.32789 407.311865,198.500611 509.798466,149.848421 C616.790707,99.0573248 626.077255,151.422916 618.984653,183.255312 C616.790707,193.101987 583.775137,241.646792 619.788936,253.827005 C677.715178,273.418217 715.970883,222.645006 773.43037,212.884641 C793.139806,209.536695 887.696188,193.502323 863.457017,291.66879 C847.29757,357.113101 784.52379,381.363034 675.135678,364.418589" id="Path-7" stroke="#D6A12B" stroke-width="2.74285714" opacity="0.400000006" stroke-linecap="round" stroke-linejoin="round" stroke-dasharray="10.97142857142857,10.97142857142857" mask="url(#mask-4)"></path>
                    </g>
                    <path d="M149.957143,45.3969063 C155.637786,45.3969063 160.780643,47.6994419 164.503339,51.4221382 C168.226036,55.1448346 170.528571,60.2876917 170.528571,65.9683348 L170.528571,65.9683348 L170.528571,262.548634 C170.528571,268.165964 168.27522,273.26384 164.617711,276.979554 C160.960201,280.695267 155.898535,283.028818 150.281905,283.117499 L150.281905,283.117499 L66.5180112,284.440048 C60.838076,284.529728 55.6595095,282.30867 51.8785068,278.645208 C48.1008709,274.985008 45.7183108,269.884972 45.6246294,264.211117 L45.6246294,264.211117 L46.9528825,65.8300263 C46.9908939,60.1764988 49.3068072,55.0682188 53.0266314,51.3733207 C56.7464556,47.6784225 61.8701908,45.3969063 67.5238461,45.3969063 L67.5238461,45.3969063 Z" id="Rectangle" stroke="#FFFFFF" stroke-width="2.74285714" opacity="0.400000006"></path>
                </g>
            </g>
        </g>
    </g>
</svg>