<?xml version="1.0" encoding="UTF-8"?>
<svg width="232px" height="346px" viewBox="0 0 232 346" version="1.1" xmlns="http://www.w3.org/2000/svg" xmlns:xlink="http://www.w3.org/1999/xlink">
    <title>A8762E03-416C-4A7C-A0EE-F060560F4E64</title>
    <defs>
        <path d="M32.9142857,0 L183.085714,0 C201.263772,-3.33925509e-15 216,14.7362277 216,32.9142857 L216,297.276797 C216,315.454855 201.263772,330.191083 183.085714,330.191083 L32.9142857,330.191083 C14.7362277,330.191083 2.22617006e-15,315.454855 0,297.276797 L0,32.9142857 C-2.22617006e-15,14.7362277 14.7362277,3.33925509e-15 32.9142857,0 Z" id="path-1"></path>
        <filter x="-6.2%" y="-3.2%" width="112.5%" height="108.2%" filterUnits="objectBoundingBox" id="filter-2">
            <feOffset dx="0" dy="3" in="SourceAlpha" result="shadowOffsetOuter1"></feOffset>
            <feGaussianBlur stdDeviation="4" in="shadowOffsetOuter1" result="shadowBlurOuter1"></feGaussianBlur>
            <feComposite in="shadowBlurOuter1" in2="SourceAlpha" operator="out" result="shadowBlurOuter1"></feComposite>
            <feColorMatrix values="0 0 0 0 0   0 0 0 0 0   0 0 0 0 0  0 0 0 0.1 0" type="matrix" in="shadowBlurOuter1"></feColorMatrix>
        </filter>
        <path d="M32.9142857,0 L183.085714,0 C201.263772,-3.33925509e-15 216,14.7362277 216,32.9142857 L216,297.276797 C216,315.454855 201.263772,330.191083 183.085714,330.191083 L32.9142857,330.191083 C14.7362277,330.191083 2.22617006e-15,315.454855 0,297.276797 L0,32.9142857 C-2.22617006e-15,14.7362277 14.7362277,3.33925509e-15 32.9142857,0 Z" id="path-3"></path>
    </defs>
    <g id="FINAL" stroke="none" stroke-width="1" fill="none" fill-rule="evenodd">
        <g id="Happy-Hunny-Landing-Phase1-1920" transform="translate(-319.000000, -105.000000)">
            <g id="Game" transform="translate(95.135278, 109.714286)">
                <g id="card-2" transform="translate(232.000000, 0.000000)">
                    <g id="Rectangle-Copy-22">
                        <use fill="black" fill-opacity="1" filter="url(#filter-2)" xlink:href="#path-1"></use>
                        <path stroke="#FFFFFF" stroke-width="6.85714286" d="M183.085714,3.42857143 C191.227969,3.42857143 198.599398,6.72887242 203.935263,12.0647372 C209.271128,17.400602 212.571429,24.7720305 212.571429,32.9142857 L212.571429,32.9142857 L212.571429,297.276797 C212.571429,305.419052 209.271128,312.790481 203.935263,318.126346 C198.599398,323.46221 191.227969,326.762511 183.085714,326.762511 L183.085714,326.762511 L32.9142857,326.762511 C24.7720305,326.762511 17.400602,323.46221 12.0647372,318.126346 C6.72887242,312.790481 3.42857143,305.419052 3.42857143,297.276797 L3.42857143,297.276797 L3.42857143,32.9142857 C3.42857143,24.7720305 6.72887242,17.400602 12.0647372,12.0647372 C17.400602,6.72887242 24.7720305,3.42857143 32.9142857,3.42857143 L32.9142857,3.42857143 Z" stroke-linejoin="square" fill="#FFD343" fill-rule="evenodd"></path>
                    </g>
                    <g id="card-dotted-line">
                        <mask id="mask-4" fill="white">
                            <use xlink:href="#path-3"></use>
                        </mask>
                        <g id="Mask"></g>
                        <path d="M743.716417,16.6069196 C708.272284,49.3524627 653.974935,92.8185174 618.614945,112.703436 C567.977769,141.179579 561.129858,154.184978 454.012739,181.759772 C401.493903,195.279516 329.317585,205.725437 299.301335,146.531446 C285.70621,119.720978 311.005346,93.2018659 338.369781,108.271817 C366.783478,123.919611 353.927757,172.846312 327.160872,181.759772 C311.430159,186.99815 301.852818,188.57241 286.056106,189.153669 C229.070248,191.250532 171.122981,185.427301 115.071025,194.645937 C-63.3784895,223.9948 -89.4819375,347.923421 -93.5869732,368.782821 C-107.923082,441.630573 -93.5869732,544.435314 4.26325641e-13,580.508817 C114.193882,624.525342 179.029143,539.698063 281.515743,491.045874 C388.507985,440.254777 397.794533,492.620369 390.701931,524.452764 C388.507985,534.299439 355.492415,582.844245 391.506214,595.024458 C449.432456,614.615669 487.68816,563.842458 545.147648,554.082093 C564.857084,550.734147 659.413465,534.699775 635.174295,632.866242 C619.014847,698.310553 556.241068,722.560486 446.852956,705.616041" id="Path-7" stroke="#D6A12B" stroke-width="2.74285714" opacity="0.400000006" stroke-linecap="round" stroke-linejoin="round" stroke-dasharray="10.97142857142857,10.97142857142857" mask="url(#mask-4)"></path>
                    </g>
                    <path d="M149.957143,45.3969063 C155.637786,45.3969063 160.780643,47.6994419 164.503339,51.4221382 C168.226036,55.1448346 170.528571,60.2876917 170.528571,65.9683348 L170.528571,65.9683348 L170.528571,262.548634 C170.528571,268.165964 168.27522,273.26384 164.617711,276.979554 C160.960201,280.695267 155.898535,283.028818 150.281905,283.117499 L150.281905,283.117499 L66.5180112,284.440048 C60.838076,284.529728 55.6595095,282.30867 51.8785068,278.645208 C48.1008709,274.985008 45.7183108,269.884972 45.6246294,264.211117 L45.6246294,264.211117 L46.9528825,65.8300263 C46.9908939,60.1764988 49.3068072,55.0682188 53.0266314,51.3733207 C56.7464556,47.6784225 61.8701908,45.3969063 67.5238461,45.3969063 L67.5238461,45.3969063 Z" id="Rectangle-Copy-5" stroke="#FFFFFF" stroke-width="2.74285714" opacity="0.400000006"></path>
                </g>
            </g>
        </g>
    </g>
</svg>