<?xml version="1.0" encoding="UTF-8"?>
<svg width="589px" height="189px" viewBox="0 0 589 189" version="1.1" xmlns="http://www.w3.org/2000/svg" xmlns:xlink="http://www.w3.org/1999/xlink">
    <title>6AAF752B-E84F-4A89-947F-7A200B38E955</title>
    <g id="FINAL" stroke="none" stroke-width="1" fill="none" fill-rule="evenodd" stroke-linecap="round" stroke-linejoin="round">
        <g id="Happy-Hunny-Landing-Phase1-1920" transform="translate(-1100.000000, -40.000000)" stroke="#000000" stroke-width="2.74285714">
            <g id="img-top-dotted-line" transform="translate(1094.547284, 41.839752)">
                <path d="M592.995573,145.452868 C567.68006,171.734132 539.771689,184.833832 494.93843,184.833832 C481.691191,184.833832 453.474304,178.571674 445.490746,175.332835 C427.474611,168.023892 414.056865,157.339071 414.370685,134.308295 C414.452487,128.304961 427.474611,112.032279 434.897917,125.276654 C437.000174,129.02742 435.804205,133.926733 435.132794,138.173725 C429.803374,171.884818 385.747502,175.205904 361.843397,157.339071 C349.599224,148.187313 318.747629,122.05015 309.025651,110.162752 C276.68391,70.6173909 265.420025,49.3577473 215.943452,19.9933953 C159.781259,-13.3388731 70.2559524,-6.16955109 7.77241443,50.3867268" id="Path" stroke-dasharray="8.228571428571428,8.228571428571428"></path>
                <polyline id="Path" transform="translate(10.880176, 49.615684) rotate(-140.000000) translate(-10.880176, -49.615684) " points="1.28017583 55.101398 10.8801758 44.1299695 20.4801758 55.101398"></polyline>
            </g>
        </g>
    </g>
</svg>