<?xml version="1.0" encoding="UTF-8"?>
<svg width="232px" height="346px" viewBox="0 0 232 346" version="1.1" xmlns="http://www.w3.org/2000/svg" xmlns:xlink="http://www.w3.org/1999/xlink">
    <title>CBEFD305-4D68-4DA5-9DD6-FC39688BFC94</title>
    <defs>
        <path d="M32.9142857,0 L183.085714,0 C201.263772,-3.33925509e-15 216,14.7362277 216,32.9142857 L216,297.276797 C216,315.454855 201.263772,330.191083 183.085714,330.191083 L32.9142857,330.191083 C14.7362277,330.191083 2.22617006e-15,315.454855 0,297.276797 L0,32.9142857 C-2.22617006e-15,14.7362277 14.7362277,3.33925509e-15 32.9142857,0 Z" id="path-1"></path>
        <filter x="-6.2%" y="-3.2%" width="112.5%" height="108.2%" filterUnits="objectBoundingBox" id="filter-2">
            <feOffset dx="0" dy="3" in="SourceAlpha" result="shadowOffsetOuter1"></feOffset>
            <feGaussianBlur stdDeviation="4" in="shadowOffsetOuter1" result="shadowBlurOuter1"></feGaussianBlur>
            <feComposite in="shadowBlurOuter1" in2="SourceAlpha" operator="out" result="shadowBlurOuter1"></feComposite>
            <feColorMatrix values="0 0 0 0 0   0 0 0 0 0   0 0 0 0 0  0 0 0 0.1 0" type="matrix" in="shadowBlurOuter1"></feColorMatrix>
        </filter>
        <path d="M32.9142857,0 L183.085714,0 C201.263772,-3.33925509e-15 216,14.7362277 216,32.9142857 L216,297.276797 C216,315.454855 201.263772,330.191083 183.085714,330.191083 L32.9142857,330.191083 C14.7362277,330.191083 2.22617006e-15,315.454855 0,297.276797 L0,32.9142857 C-2.22617006e-15,14.7362277 14.7362277,3.33925509e-15 32.9142857,0 Z" id="path-3"></path>
    </defs>
    <g id="FINAL" stroke="none" stroke-width="1" fill="none" fill-rule="evenodd">
        <g id="Happy-Hunny-Landing-Phase1-1920" transform="translate(-551.000000, -105.000000)">
            <g id="Game" transform="translate(95.135278, 109.714286)">
                <g id="card-3" transform="translate(464.000000, 0.000000)">
                    <g id="Rectangle-Copy-20">
                        <use fill="black" fill-opacity="1" filter="url(#filter-2)" xlink:href="#path-1"></use>
                        <path stroke="#FFFFFF" stroke-width="6.85714286" d="M183.085714,3.42857143 C191.227969,3.42857143 198.599398,6.72887242 203.935263,12.0647372 C209.271128,17.400602 212.571429,24.7720305 212.571429,32.9142857 L212.571429,32.9142857 L212.571429,297.276797 C212.571429,305.419052 209.271128,312.790481 203.935263,318.126346 C198.599398,323.46221 191.227969,326.762511 183.085714,326.762511 L183.085714,326.762511 L32.9142857,326.762511 C24.7720305,326.762511 17.400602,323.46221 12.0647372,318.126346 C6.72887242,312.790481 3.42857143,305.419052 3.42857143,297.276797 L3.42857143,297.276797 L3.42857143,32.9142857 C3.42857143,24.7720305 6.72887242,17.400602 12.0647372,12.0647372 C17.400602,6.72887242 24.7720305,3.42857143 32.9142857,3.42857143 L32.9142857,3.42857143 Z" stroke-linejoin="square" fill="#FFD343" fill-rule="evenodd"></path>
                    </g>
                    <g id="card-dotted-line">
                        <mask id="mask-4" fill="white">
                            <use xlink:href="#path-3"></use>
                        </mask>
                        <g id="Mask"></g>
                        <path d="M516.710048,16.6069196 C481.265915,49.3524627 426.968566,92.8185174 391.608576,112.703436 C340.9714,141.179579 334.123489,154.184978 227.006369,181.759772 C174.487534,195.279516 102.311216,205.725437 72.2949654,146.531446 C58.6998405,119.720978 83.9989771,93.2018659 111.363412,108.271817 C139.777109,123.919611 126.921388,172.846312 100.154502,181.759772 C84.4237895,186.99815 74.8464483,188.57241 59.0497363,189.153669 C2.06387867,191.250532 -55.8833881,185.427301 -111.935345,194.645937 C-290.384859,223.9948 -316.488307,347.923421 -320.593343,368.782821 C-334.929451,441.630573 -320.593343,544.435314 -227.006369,580.508817 C-112.812488,624.525342 -47.9772267,539.698063 54.5093738,491.045874 C161.501616,440.254777 170.788163,492.620369 163.695561,524.452764 C161.501616,534.299439 128.486045,582.844245 164.499844,595.024458 C222.426086,614.615669 260.681791,563.842458 318.141278,554.082093 C337.850715,550.734147 432.407096,534.699775 408.167925,632.866242 C392.008478,698.310553 329.234698,722.560486 219.846586,705.616041" id="Path-7" stroke="#D6A12B" stroke-width="2.74285714" opacity="0.400000006" stroke-linecap="round" stroke-linejoin="round" stroke-dasharray="10.97142857142857,10.97142857142857" mask="url(#mask-4)"></path>
                    </g>
                    <path d="M149.957143,45.3969063 C155.637786,45.3969063 160.780643,47.6994419 164.503339,51.4221382 C168.226036,55.1448346 170.528571,60.2876917 170.528571,65.9683348 L170.528571,65.9683348 L170.528571,262.548634 C170.528571,268.165964 168.27522,273.26384 164.617711,276.979554 C160.960201,280.695267 155.898535,283.028818 150.281905,283.117499 L150.281905,283.117499 L66.5180112,284.440048 C60.838076,284.529728 55.6595095,282.30867 51.8785068,278.645208 C48.1008709,274.985008 45.7183108,269.884972 45.6246294,264.211117 L45.6246294,264.211117 L46.9528825,65.8300263 C46.9908939,60.1764988 49.3068072,55.0682188 53.0266314,51.3733207 C56.7464556,47.6784225 61.8701908,45.3969063 67.5238461,45.3969063 L67.5238461,45.3969063 Z" id="Rectangle-Copy-6" stroke="#FFFFFF" stroke-width="2.74285714" opacity="0.400000006"></path>
                </g>
            </g>
        </g>
    </g>
</svg>