<?xml version="1.0" encoding="UTF-8"?>
<svg width="1920px" height="1097px" viewBox="0 0 1920 1097" version="1.1" xmlns="http://www.w3.org/2000/svg" xmlns:xlink="http://www.w3.org/1999/xlink">
    <title>05FACBC7-D24B-4745-88C6-5F0BB44D96B4</title>
    <defs>
        <rect id="path-1" x="0" y="0" width="1920" height="1097.14286"></rect>
    </defs>
    <g id="FINAL" stroke="none" stroke-width="1" fill="none" fill-rule="evenodd">
        <g id="img-bg-desktop">
            <mask id="mask-2" fill="white">
                <use xlink:href="#path-1"></use>
            </mask>
            <use id="Mask" fill="#EFEEEB" xlink:href="#path-1"></use>
            <path d="M1939.25927,458.111776 C1793.34259,331.739252 1578.099,290.191216 1412.93349,360.574297 C1140.46189,476.684015 1167.88641,778.296383 1130.53522,931.789432 C1090.09372,1097.98071 843.598765,1024.44739 683.347516,1238.11543 C541.253339,1427.57433 509.407893,1696.5474 727.553319,1852.88669 L1204.57229,1852.88669 C1294.85824,1799.90504 1368.24737,1708.8183 1393.04278,1566.24902 C1440.00624,1296.21111 1752.52067,1293.34055 1939.25927,1177.13789 L1939.25927,458.111776 Z" id="Fill-36" fill="#E8D5C7" mask="url(#mask-2)" transform="translate(1254.789993, 1089.686692) rotate(6.000000) translate(-1254.789993, -1089.686692) "></path>
            <path d="M1396.17815,723.184821 C1435.44966,723.184821 1479.13559,744.929781 1471.5921,810.759783 C1466.62067,854.147961 1436.27824,893.08875 1397.0304,891.841362 C1347.10582,890.255299 1325.87628,856.41974 1325.87628,812.789053 C1325.87628,769.15976 1356.90803,723.184821 1396.17815,723.184821" id="Fill-19-Copy" fill="#F5CBC6" mask="url(#mask-2)" transform="translate(1399.162557, 807.527678) rotate(-229.000000) translate(-1399.162557, -807.527678) "></path>
            <path d="M1704.78183,206.662016 C1678.44456,206.662016 1651.73922,208.841523 1624.96242,213.190329 C1583.63232,219.902961 1544.28833,231.435122 1508.02277,247.466947 C1452.81936,271.870847 1407.88,305.682981 1378.06278,345.248718 C1362.1183,366.405759 1350.4279,389.252868 1343.31487,413.155986 C1335.7901,438.44462 1333.31795,465.198168 1335.96591,492.673114 C1339.64323,530.805696 1355.20603,582.60571 1379.78858,638.531078 C1405.2258,696.399456 1438.31597,754.903028 1475.48215,807.717083 C1516.12205,865.465795 1560.02865,913.710428 1602.45503,947.23559 C1650.82273,985.454945 1696.83681,1004.83344 1739.21952,1004.83344 C1785.43493,1004.83344 1833.20771,983.344628 1877.37406,942.690555 C1919.33028,904.071937 1956.38984,850.079939 1984.54762,786.552669 C2020.82736,704.701773 2039.05684,613.718839 2035.87918,530.363896 C2034.16416,485.399583 2026.33653,443.228986 2012.61182,405.024945 C1997.90142,364.072558 1976.44266,327.863704 1948.83274,297.403917 C1925.70376,271.888996 1895.88824,251.223095 1860.21363,235.981858 C1826.54272,221.596432 1788.56496,212.382726 1747.33581,208.595386 C1733.29747,207.306284 1719.09126,206.662016 1704.78183,206.662016" id="Fill-39" stroke="#F8F2EA" stroke-width="2.74285714" mask="url(#mask-2)" transform="translate(1685.585996, 605.747730) rotate(41.000000) translate(-1685.585996, -605.747730) "></path>
            <path d="M1604.94486,-126.216458 C1599.66255,-125.625202 1596.15252,-124.603942 1588.48033,-123.613396 L1588.48033,325.357154 C1611.49691,330.140952 1633.144,331.611413 1655.94576,329.050584 C1773.50679,315.854827 1879.65542,184.089227 1865.57311,58.3705621 C1851.4908,-67.3519421 1722.50588,-139.408375 1604.94486,-126.216458" id="Fill-9" fill="#F5CBC6" mask="url(#mask-2)" transform="translate(1727.656641, 101.266104) rotate(-270.000000) translate(-1727.656641, -101.266104) "></path>
            <path d="M50.2405154,549.942857 C112.180953,549.942857 181.083951,584.239786 169.186098,688.069221 C161.34498,756.502607 113.487806,817.921412 51.584707,815.953987 C-27.1581252,813.452391 -60.6421139,760.085737 -60.6421139,691.269857 C-60.6421139,622.456175 -11.6977253,549.942857 50.2405154,549.942857" id="Fill-19" fill="#E1EAD9" mask="url(#mask-2)"></path>
            <path d="M399.264033,823.704839 C412.629045,943.018244 311.887496,1068.07516 200.315276,1080.59426 C88.7459692,1093.11336 -12.5374049,1006.54088 -25.9024175,887.227478 C-39.270343,767.914073 40.3429508,661.041054 151.915171,648.521951 C263.487391,636.002848 385.89902,704.391435 399.264033,823.704839" id="Fill-7-Copy" stroke="#F5CBC6" stroke-width="2.74285714" mask="url(#mask-2)" transform="translate(186.546173, 864.426347) rotate(-75.000000) translate(-186.546173, -864.426347) "></path>
        </g>
    </g>
</svg>