<?xml version="1.0" encoding="UTF-8"?>
<svg width="768px" height="1024px" viewBox="0 0 768 1024" version="1.1" xmlns="http://www.w3.org/2000/svg" xmlns:xlink="http://www.w3.org/1999/xlink">
    <title>EAB1DE4F-A9D0-4621-A7AF-2D882CA61CF5</title>
    <defs>
        <rect id="path-1" x="0" y="0" width="768" height="1024"></rect>
    </defs>
    <g id="FINAL" stroke="none" stroke-width="1" fill="none" fill-rule="evenodd">
        <g id="img-bg-mobile">
            <mask id="mask-2" fill="white">
                <use xlink:href="#path-1"></use>
            </mask>
            <use id="Mask" fill="#EFEEEB" xlink:href="#path-1"></use>
            <path d="M119.361269,1327.73116 C-19.6201687,1052.32377 414.080048,1025.19002 474.777661,643.866662 C527.053085,315.485963 873.904365,41.638413 1167.80985,243.978468 C1480.4177,459.188918 1534.47284,809.288197 1108.13651,1212.20071 C869.483992,1437.74426 268.26898,1622.80686 119.361269,1327.73116" id="Fill-17" fill="#E8D5C7" mask="url(#mask-2)" transform="translate(753.567697, 827.542354) rotate(-5.000000) translate(-753.567697, -827.542354) "></path>
            <path d="M41.920387,309.159723 C82.6464018,309.159723 127.95032,331.710052 120.127448,399.978202 C114.971891,444.97335 83.5056613,485.35639 42.8041968,484.062803 C-8.96944089,482.417996 -30.9852593,447.329268 -30.9852593,402.08263 C-30.9852593,356.837437 1.1958163,309.159723 41.920387,309.159723" id="Fill-19" fill="#E1EAD9" mask="url(#mask-2)" transform="translate(45.015327, 396.626389) rotate(-107.000000) translate(-45.015327, -396.626389) "></path>
            <path d="M492.701605,389.410413 C460.602115,389.410413 428.054024,392.066765 395.41884,397.367028 C345.046301,405.548288 297.094409,419.603523 252.894451,439.142884 C185.613328,468.88601 130.841875,510.095758 94.5010694,558.317917 C75.0681561,584.103818 60.8200718,611.94955 52.150811,641.082331 C42.9797256,671.903758 39.9667047,704.510602 43.1940033,737.996676 C47.6758632,784.472126 66.6435866,847.605247 96.6044469,915.766291 C127.606973,986.295449 167.9368,1057.59877 213.234414,1121.96779 C262.76574,1192.3511 316.278484,1251.15097 367.987148,1292.01097 C426.937016,1338.59217 483.018327,1362.21041 534.673767,1362.21041 C591.000461,1362.21041 649.225241,1336.02015 703.054562,1286.47154 C754.190206,1239.40372 799.357871,1173.59904 833.676172,1096.1729 C877.893411,996.414194 900.111243,885.525487 896.238347,783.933667 C894.148102,729.131801 884.607906,677.734876 867.880422,631.172333 C849.9516,581.260146 823.79797,537.129309 790.147386,500.005352 C761.958118,468.908129 725.619386,443.720823 682.139677,425.14502 C641.102042,407.612266 594.815295,396.382733 544.565793,391.766776 C527.456065,390.195637 510.141736,389.410413 492.701605,389.410413" id="Fill-39" stroke="#F8F2EA" stroke-width="2" opacity="0.600000024" mask="url(#mask-2)" transform="translate(469.305993, 875.810413) rotate(-25.000000) translate(-469.305993, -875.810413) "></path>
            <path d="M63.3989732,-115.070214 C180.61043,-115.070214 310.997318,-50.1692675 288.48271,146.3098 C273.644765,275.808029 183.083421,392.032388 65.942621,388.309382 C-83.0644338,383.575548 -146.427033,282.588477 -146.427033,152.366445 C-146.427033,22.1485736 -53.8083277,-115.070214 63.3989732,-115.070214" id="Fill-19-Copy" fill="#F5CBC6" mask="url(#mask-2)" transform="translate(72.306362, 136.663119) rotate(-315.000000) translate(-72.306362, -136.663119) "></path>
        </g>
    </g>
</svg>